<svg xmlns="http://www.w3.org/2000/svg" viewBox="0 0 64 64"><path d="M6 46h52a0 0 0 0 1 0 0v4a4 4 0 0 1-4 4H10a4 4 0 0 1-4-4v-4a0 0 0 0 1 0 0z" fill="#c21000"/><path d="M32 12c-11 0-20 8.5-20 20v3a3 3 0 0 0 3 3h34a3 3 0 0 0 3-3v-3c0-11.5-9-20-20-20z" fill="#f37335"/><path d="M28 12.5a20.4 20.4 0 0 1 8 0V22a4 4 0 0 1-8 0z" fill="#ff8c42"/><rect x="4" y="44" width="56" height="6" rx="3" fill="#ff8c42"/><path d="M20 34c0-7 3-13 6-16M44 34c0-7-3-13-6-16" stroke="#d94f1a" stroke-width="2.5" fill="none" stroke-linecap="round"/></svg>
